<?xml version="1.0" encoding="UTF-8" standalone="no"?>
<svg
   id="logo"
   version="1.1"
   viewBox="0 0 88.989994 106.82515"
   sodipodi:docname="logo-design-single.svg"
   width="88.989998"
   height="106.82515"
   inkscape:version="1.4.2 (ebf0e940, 2025-05-08)"
   xmlns:inkscape="http://www.inkscape.org/namespaces/inkscape"
   xmlns:sodipodi="http://sodipodi.sourceforge.net/DTD/sodipodi-0.dtd"
   xmlns="http://www.w3.org/2000/svg"
   xmlns:svg="http://www.w3.org/2000/svg">
  <sodipodi:namedview
     id="namedview11"
     pagecolor="#181212"
     bordercolor="#000000"
     borderopacity="0.24705882"
     inkscape:showpageshadow="2"
     inkscape:pageopacity="0.0"
     inkscape:pagecheckerboard="0"
     inkscape:deskcolor="#d1d1d1"
     guidecolor="#0037e5"
     guideopacity="0.6"
     inkscape:zoom="1.2799409"
     inkscape:cx="-71.097034"
     inkscape:cy="51.955525"
     inkscape:window-width="992"
     inkscape:window-height="942"
     inkscape:window-x="0"
     inkscape:window-y="25"
     inkscape:window-maximized="0"
     inkscape:current-layer="logo" />
  <!-- Generator: Adobe Illustrator 30.0.0, SVG Export Plug-In . SVG Version: 2.1.1 Build 123)  -->
  <defs
     id="defs1">
    <style
       id="style1">
      .st0 {
        fill: #fff;
        stroke: #fff;
        stroke-miterlimit: 10;
      }
    </style>
  </defs>
  <path
     class="st0"
     d="m -122.10129,96.432568 c -3.44,-0.04 -6.54,-0.66 -9.28,-1.89 -2.83,-1.27 -5.22,-3 -7.18,-5.19 -1.96,-2.19 -3.46,-4.73 -4.5,-7.62 -1.04,-2.88 -1.56,-5.94 -1.56,-9.17 0,-3.46 0.55,-6.71 1.64,-9.73 1.09,-3.03 2.64,-5.67 4.63,-7.92 1.99,-2.25 4.38,-4.02 7.18,-5.32 2.8,-1.3 5.93,-1.95 9.39,-1.95 2.83,0 5.57,0.61 8.22,1.82 1.46,0.66 2.77,1.49 3.95,2.46 1.71,1.42 4.11,1.59 5.88,0.25 l 3.67,-2.8 c -2.48,-3.23 -5.67,-5.63 -9.56,-7.18 -3.89,-1.56 -7.86,-2.34 -11.9,-2.34 -4.73,0 -9.06,0.81 -12.98,2.42 -3.92,1.62 -7.28,3.88 -10.08,6.79 -2.8,2.91 -4.98,6.38 -6.53,10.39 -1.56,4.01 -2.34,8.38 -2.34,13.11 0,3.87 0.72,7.69 2.16,11.47 1.44,3.78 3.53,7.17 6.27,10.17 2.74,3 6.06,5.42 9.95,7.270002 3.82,1.81 8.11,2.73 12.85,2.76 v 0 c 0,0 23.410004,0 23.410004,0 v -7.800002 h -23.310004 z"
     id="path1" />
  <path
     class="st0"
     d="m 139.83871,76.282568 c 2.31,-0.23 4.4,-0.85 6.27,-1.86 1.88,-1.01 3.46,-2.25 4.76,-3.72 1.3,-1.47 2.29,-3.12 2.98,-4.93 0.69,-1.82 1.04,-3.71 1.04,-5.67 0,-1.96 -0.29,-3.88 -0.86,-5.93 -0.58,-2.05 -1.6,-3.89 -3.07,-5.54 -1.47,-1.64 -3.48,-3 -6.01,-4.07 -2.54,-1.07 -5.77,-1.6 -9.69,-1.6 h -21.55 v 52.94 h -6.94 v 8.330002 h 15.25 V 77.232568 h 9.26 l 12.88,22.33 c 1.67,2.890002 4.75,4.670002 8.08,4.670002 h 4.99 z m -6.92,-6.32 h -10.91 v -19.73 h 10.91 c 1.61,0 3.22,0.13 4.8,0.39 1.58,0.26 3,0.74 4.24,1.43 1.24,0.69 2.23,1.69 2.99,2.99 0.75,1.3 1.13,2.99 1.13,5.06 0,2.07 -0.38,3.76 -1.13,5.06 -0.75,1.3 -1.75,2.29 -2.99,2.99 -1.24,0.69 -2.65,1.17 -4.24,1.43 -1.59,0.26 -3.19,0.39 -4.8,0.39 z"
     id="path2" />
  <g
     id="g3"
     transform="translate(-395.38,-0.00485995)">
    <rect
       class="st0"
       x="429.64999"
       y="90.139999"
       width="20.18"
       height="12.19"
       transform="rotate(-90,439.745,96.235)"
       id="rect2" />
    <path
       class="st0"
       d="m 476.03,97.5 -0.02,-54.59 c 0,-3.35 -1.32,-6.57 -3.66,-8.97 L 439.75,0.72 408.06,33.24 c -2.78,2.85 -4.34,5.83 -4.34,9.8 v 54.62 h -7.84 v 8.13 h 12.66 c 2.56,0 4.63,-2.08 4.63,-4.63 V 41.01 l 26.57,-28.11 27.11,28.35 v 60.32 c 0,2.25 1.8,4.18 4.05,4.18 l 12.97,0.04 v -8.25 l -7.85,-0.03 z"
       id="path3" />
  </g>
  <path
     class="st0"
     d="m -27.291286,95.872568 v -52.91 h -8.31 v 25.44 h -31.76 v -18.44 c 0,-3.87 -3.14,-7 -7,-7 h -9.15 v 8.36 h 7.85 v 52.920002 h 8.31 V 76.202568 h 31.76 v 20.57 c 0,4.100002 3.31,7.430002 7.41,7.460002 v 0 c 0,0 0.06,0 0.06,0 h 8.66 v -8.370002 h -7.82 z"
     id="path4" />
  <path
     class="st0"
     d="m 245.55871,95.912568 v -52.94 h -12.38 l -19.3,46.39 h -0.35 l -19.47,-46.39 h -12.38 v 61.270002 h 1.29 c 3.87,0 7.01,-3.14 7.01,-7.010002 v -43.35 h 0.17 l 20.68,50.370002 h 5.54 l 20.68,-50.370002 h 0.17 v 43.39 c 0,3.850002 3.12,6.980002 6.98,6.980002 h 9.14 v -8.340002 h -7.81 z"
     id="path5" />
  <g
     id="g11"
     transform="translate(-396.16129,-1.5674321)">
    <path
       class="st0"
       d="m 34.21,103.08 c -4.42,2.36 -9.35,3.54 -14.81,3.54 -2.76,0 -5.3,-0.45 -7.61,-1.34 -2.31,-0.89 -4.3,-2.15 -5.96,-3.79 C 4.16,99.86 2.86,97.89 1.91,95.6 0.97,93.31 0.49,90.77 0.49,87.97 c 0,-2.8 0.47,-5.47 1.42,-7.81 0.94,-2.34 2.25,-4.34 3.92,-5.99 1.67,-1.65 3.66,-2.92 5.96,-3.82 2.31,-0.89 4.84,-1.34 7.61,-1.34 2.77,0 5.29,0.33 7.68,0.99 2.39,0.66 4.53,1.83 6.42,3.51 l -4.7,4.75 C 27.66,77.15 26.26,76.29 24.63,75.68 23,75.07 21.27,74.77 19.45,74.77 c -1.82,0 -3.53,0.33 -5.03,0.99 -1.5,0.66 -2.79,1.57 -3.86,2.73 -1.08,1.16 -1.91,2.52 -2.5,4.07 -0.59,1.55 -0.88,3.22 -0.88,5 0,1.92 0.3,3.69 0.88,5.31 0.59,1.62 1.43,3.02 2.5,4.2 1.08,1.18 2.37,2.11 3.86,2.78 1.5,0.67 3.17,1.01 5.03,1.01 1.62,0 3.14,-0.15 4.57,-0.45 1.43,-0.3 2.7,-0.77 3.82,-1.41 V 90.56 H 20.51 V 84.8 h 13.7 v 18.29 z"
       id="path6" />
    <path
       class="st0"
       d="m 51.96,69.93 h 6.37 v 35.78 h -6.37 z"
       id="path7" />
    <path
       class="st0"
       d="m 73.48,69.93 h 7.33 l 9.75,27.04 10.06,-27.04 h 6.87 l -14.45,35.78 h -5.51 z"
       id="path8" />
    <path
       class="st0"
       d="m 121.65,69.93 h 23.7 v 5.76 h -17.34 v 8.79 h 16.42 v 5.76 h -16.42 v 9.7 h 18.24 v 5.76 H 121.64 V 69.92 Z"
       id="path9" />
    <path
       class="st0"
       d="m 173.62,69.93 h 6.37 v 35.78 h -6.37 z"
       id="path10" />
    <path
       class="st0"
       d="m 203.83,75.69 h -10.97 v -5.76 h 28.3 v 5.76 h -10.97 v 30.02 h -6.37 V 75.69 Z"
       id="path11" />
  </g>
</svg>
