<?xml version="1.0" encoding="UTF-8"?>
<svg id="logo" xmlns="http://www.w3.org/2000/svg" version="1.1" viewBox="0 0 650.03 107.12">
  <!-- Generator: Adobe Illustrator 30.0.0, SVG Export Plug-In . SVG Version: 2.1.1 Build 123)  -->
  <defs>
    <style>
      .st0 {
        fill: #fff;
        stroke: #fff;
        stroke-miterlimit: 10;
      }
    </style>
  </defs>
  <path class="st0" d="M274.06,98c-3.44-.04-6.54-.66-9.28-1.89-2.83-1.27-5.22-3-7.18-5.19-1.96-2.19-3.46-4.73-4.5-7.62-1.04-2.88-1.56-5.94-1.56-9.17,0-3.46.55-6.71,1.64-9.73,1.09-3.03,2.64-5.67,4.63-7.92,1.99-2.25,4.38-4.02,7.18-5.32,2.8-1.3,5.93-1.95,9.39-1.95,2.83,0,5.57.61,8.22,1.82,1.46.66,2.77,1.49,3.95,2.46,1.71,1.42,4.11,1.59,5.88.25l3.67-2.8c-2.48-3.23-5.67-5.63-9.56-7.18-3.89-1.56-7.86-2.34-11.9-2.34-4.73,0-9.06.81-12.98,2.42-3.92,1.62-7.28,3.88-10.08,6.79-2.8,2.91-4.98,6.38-6.53,10.39-1.56,4.01-2.34,8.38-2.34,13.11,0,3.87.72,7.69,2.16,11.47,1.44,3.78,3.53,7.17,6.27,10.17,2.74,3,6.06,5.42,9.95,7.27,3.82,1.81,8.11,2.73,12.85,2.76h0s23.41,0,23.41,0v-7.8h-23.31Z"/>
  <path class="st0" d="M536,77.85c2.31-.23,4.4-.85,6.27-1.86,1.88-1.01,3.46-2.25,4.76-3.72,1.3-1.47,2.29-3.12,2.98-4.93.69-1.82,1.04-3.71,1.04-5.67s-.29-3.88-.86-5.93c-.58-2.05-1.6-3.89-3.07-5.54-1.47-1.64-3.48-3-6.01-4.07-2.54-1.07-5.77-1.6-9.69-1.6h-21.55v52.94h-6.94v8.33h15.25v-27h9.26l12.88,22.33c1.67,2.89,4.75,4.67,8.08,4.67h4.99l-17.39-27.95ZM529.08,71.53h-10.91v-19.73h10.91c1.61,0,3.22.13,4.8.39,1.58.26,3,.74,4.24,1.43,1.24.69,2.23,1.69,2.99,2.99.75,1.3,1.13,2.99,1.13,5.06s-.38,3.76-1.13,5.06c-.75,1.3-1.75,2.29-2.99,2.99-1.24.69-2.65,1.17-4.24,1.43-1.59.26-3.19.39-4.8.39Z"/>
  <g>
    <rect class="st0" x="429.65" y="90.14" width="20.18" height="12.19" transform="translate(343.51 535.98) rotate(-90)"/>
    <path class="st0" d="M476.03,97.5l-.02-54.59c0-3.35-1.32-6.57-3.66-8.97L439.75.72l-31.69,32.52c-2.78,2.85-4.34,5.83-4.34,9.8v54.62h-7.84v8.13h12.66c2.56,0,4.63-2.08,4.63-4.63v-60.15l26.57-28.11,27.11,28.35v60.32c0,2.25,1.8,4.18,4.05,4.18l12.97.04v-8.25l-7.85-.03Z"/>
  </g>
  <path class="st0" d="M368.87,97.44v-52.91h-8.31v25.44h-31.76v-18.44c0-3.87-3.14-7-7-7h-9.15v8.36h7.85v52.92h8.31v-28.04h31.76v20.57c0,4.1,3.31,7.43,7.41,7.46h0s.06,0,.06,0h8.66v-8.37h-7.82Z"/>
  <path class="st0" d="M641.72,97.48v-52.94h-12.38l-19.3,46.39h-.35l-19.47-46.39h-12.38v61.27h1.29c3.87,0,7.01-3.14,7.01-7.01v-43.35h.17l20.68,50.37h5.54l20.68-50.37h.17v43.39c0,3.85,3.12,6.98,6.98,6.98h9.14v-8.34h-7.81Z"/>
  <g>
    <path class="st0" d="M34.21,103.08c-4.42,2.36-9.35,3.54-14.81,3.54-2.76,0-5.3-.45-7.61-1.34-2.31-.89-4.3-2.15-5.96-3.79-1.67-1.63-2.97-3.6-3.92-5.89-.94-2.29-1.42-4.83-1.42-7.63s.47-5.47,1.42-7.81c.94-2.34,2.25-4.34,3.92-5.99,1.67-1.65,3.66-2.92,5.96-3.82,2.31-.89,4.84-1.34,7.61-1.34s5.29.33,7.68.99,4.53,1.83,6.42,3.51l-4.7,4.75c-1.14-1.11-2.54-1.97-4.17-2.58-1.63-.61-3.36-.91-5.18-.91s-3.53.33-5.03.99-2.79,1.57-3.86,2.73c-1.08,1.16-1.91,2.52-2.5,4.07-.59,1.55-.88,3.22-.88,5,0,1.92.3,3.69.88,5.31.59,1.62,1.43,3.02,2.5,4.2,1.08,1.18,2.37,2.11,3.86,2.78,1.5.67,3.17,1.01,5.03,1.01,1.62,0,3.14-.15,4.57-.45,1.43-.3,2.7-.77,3.82-1.41v-8.44h-7.33v-5.76h13.7v18.29Z"/>
    <path class="st0" d="M51.96,69.93h6.37v35.78h-6.37v-35.78Z"/>
    <path class="st0" d="M73.48,69.93h7.33l9.75,27.04,10.06-27.04h6.87l-14.45,35.78h-5.51l-14.05-35.78Z"/>
    <path class="st0" d="M121.65,69.93h23.7v5.76h-17.34v8.79h16.42v5.76h-16.42v9.7h18.24v5.76h-24.61v-35.78Z"/>
    <path class="st0" d="M173.62,69.93h6.37v35.78h-6.37v-35.78Z"/>
    <path class="st0" d="M203.83,75.69h-10.97v-5.76h28.3v5.76h-10.97v30.02h-6.37v-30.02Z"/>
  </g>
</svg>